<?xml version="1.0" encoding="UTF-8"?>
<!--Generator: Apple Native CoreSVG 123-->
<!DOCTYPE svg
PUBLIC "-//W3C//DTD SVG 1.1//EN"
       "http://www.w3.org/Graphics/SVG/1.1/DTD/svg11.dtd">
<svg version="1.1" xmlns="http://www.w3.org/2000/svg" xmlns:xlink="http://www.w3.org/1999/xlink" width="3300" height="2200">
 <!--glyph: "uni100337.medium", point size: 100.000000, font version: "Version 15.0d7e11", template writer version: "5"-->
 <g id="Notes">
  <rect height="2200" id="artboard" style="fill:white;opacity:1" width="3300" x="0" y="0"/>
  <line id="" style="fill:none;stroke:black;opacity:1;stroke-width:0.5;" x1="263" x2="3036" y1="292" y2="292"/>
  <text style="stroke:none;fill:black;font-family:-apple-system,&quot;SF Pro Display&quot;,&quot;SF Pro Text&quot;,Helvetica,sans-serif;font-weight:bold;" transform="matrix(1 0 0 1 263 322)">Weight/Scale Variations</text>
  <text style="stroke:none;fill:black;font-family:-apple-system,&quot;SF Pro Display&quot;,&quot;SF Pro Text&quot;,Helvetica,sans-serif;text-anchor:middle;" transform="matrix(1 0 0 1 559.711 322)">Ultralight</text>
  <text style="stroke:none;fill:black;font-family:-apple-system,&quot;SF Pro Display&quot;,&quot;SF Pro Text&quot;,Helvetica,sans-serif;text-anchor:middle;" transform="matrix(1 0 0 1 856.422 322)">Thin</text>
  <text style="stroke:none;fill:black;font-family:-apple-system,&quot;SF Pro Display&quot;,&quot;SF Pro Text&quot;,Helvetica,sans-serif;text-anchor:middle;" transform="matrix(1 0 0 1 1153.13 322)">Light</text>
  <text style="stroke:none;fill:black;font-family:-apple-system,&quot;SF Pro Display&quot;,&quot;SF Pro Text&quot;,Helvetica,sans-serif;text-anchor:middle;" transform="matrix(1 0 0 1 1449.84 322)">Regular</text>
  <text style="stroke:none;fill:black;font-family:-apple-system,&quot;SF Pro Display&quot;,&quot;SF Pro Text&quot;,Helvetica,sans-serif;text-anchor:middle;" transform="matrix(1 0 0 1 1746.56 322)">Medium</text>
  <text style="stroke:none;fill:black;font-family:-apple-system,&quot;SF Pro Display&quot;,&quot;SF Pro Text&quot;,Helvetica,sans-serif;text-anchor:middle;" transform="matrix(1 0 0 1 2043.27 322)">Semibold</text>
  <text style="stroke:none;fill:black;font-family:-apple-system,&quot;SF Pro Display&quot;,&quot;SF Pro Text&quot;,Helvetica,sans-serif;text-anchor:middle;" transform="matrix(1 0 0 1 2339.98 322)">Bold</text>
  <text style="stroke:none;fill:black;font-family:-apple-system,&quot;SF Pro Display&quot;,&quot;SF Pro Text&quot;,Helvetica,sans-serif;text-anchor:middle;" transform="matrix(1 0 0 1 2636.69 322)">Heavy</text>
  <text style="stroke:none;fill:black;font-family:-apple-system,&quot;SF Pro Display&quot;,&quot;SF Pro Text&quot;,Helvetica,sans-serif;text-anchor:middle;" transform="matrix(1 0 0 1 2933.4 322)">Black</text>
  <line id="" style="fill:none;stroke:black;opacity:1;stroke-width:0.5;" x1="263" x2="3036" y1="1903" y2="1903"/>
  <g id="" transform="matrix(1 0 0 1 263 1933)">
   <path d="M 9.24805 0.830078 C 13.5547 0.830078 17.1387 -2.74414 17.1387 -7.05078 C 17.1387 -11.3574 13.5449 -14.9316 9.23828 -14.9316 C 4.94141 -14.9316 1.36719 -11.3574 1.36719 -7.05078 C 1.36719 -2.74414 4.95117 0.830078 9.24805 0.830078 Z M 9.24805 -0.654297 C 5.70312 -0.654297 2.87109 -3.49609 2.87109 -7.05078 C 2.87109 -10.6055 5.69336 -13.4473 9.23828 -13.4473 C 12.793 -13.4473 15.6348 -10.6055 15.6445 -7.05078 C 15.6543 -3.49609 12.8027 -0.654297 9.24805 -0.654297 Z M 9.22852 -3.42773 C 9.69727 -3.42773 9.9707 -3.74023 9.9707 -4.25781 L 9.9707 -6.31836 L 12.1973 -6.31836 C 12.6953 -6.31836 13.0371 -6.57227 13.0371 -7.04102 C 13.0371 -7.51953 12.7148 -7.7832 12.1973 -7.7832 L 9.9707 -7.7832 L 9.9707 -10.0098 C 9.9707 -10.5273 9.69727 -10.8496 9.22852 -10.8496 C 8.75977 -10.8496 8.50586 -10.5078 8.50586 -10.0098 L 8.50586 -7.7832 L 6.29883 -7.7832 C 5.78125 -7.7832 5.44922 -7.51953 5.44922 -7.04102 C 5.44922 -6.57227 5.80078 -6.31836 6.29883 -6.31836 L 8.50586 -6.31836 L 8.50586 -4.25781 C 8.50586 -3.75977 8.75977 -3.42773 9.22852 -3.42773 Z"/>
  </g>
  <g id="" transform="matrix(1 0 0 1 281.506 1933)">
   <path d="M 11.709 2.91016 C 17.1582 2.91016 21.6699 -1.60156 21.6699 -7.05078 C 21.6699 -12.4902 17.1484 -17.0117 11.6992 -17.0117 C 6.25977 -17.0117 1.74805 -12.4902 1.74805 -7.05078 C 1.74805 -1.60156 6.26953 2.91016 11.709 2.91016 Z M 11.709 1.25 C 7.09961 1.25 3.41797 -2.44141 3.41797 -7.05078 C 3.41797 -11.6504 7.08984 -15.3516 11.6992 -15.3516 C 16.3086 -15.3516 20 -11.6504 20.0098 -7.05078 C 20.0195 -2.44141 16.3184 1.25 11.709 1.25 Z M 11.6895 -2.41211 C 12.207 -2.41211 12.5195 -2.77344 12.5195 -3.33984 L 12.5195 -6.23047 L 15.5762 -6.23047 C 16.123 -6.23047 16.5039 -6.51367 16.5039 -7.03125 C 16.5039 -7.55859 16.1426 -7.86133 15.5762 -7.86133 L 12.5195 -7.86133 L 12.5195 -10.9277 C 12.5195 -11.5039 12.207 -11.8555 11.6895 -11.8555 C 11.1719 -11.8555 10.8789 -11.4844 10.8789 -10.9277 L 10.8789 -7.86133 L 7.83203 -7.86133 C 7.26562 -7.86133 6.89453 -7.55859 6.89453 -7.03125 C 6.89453 -6.51367 7.28516 -6.23047 7.83203 -6.23047 L 10.8789 -6.23047 L 10.8789 -3.33984 C 10.8789 -2.79297 11.1719 -2.41211 11.6895 -2.41211 Z"/>
  </g>
  <g id="" transform="matrix(1 0 0 1 304.924 1933)">
   <path d="M 14.9707 5.67383 C 21.9336 5.67383 27.6953 -0.078125 27.6953 -7.04102 C 27.6953 -14.0039 21.9238 -19.7559 14.9609 -19.7559 C 8.00781 -19.7559 2.25586 -14.0039 2.25586 -7.04102 C 2.25586 -0.078125 8.01758 5.67383 14.9707 5.67383 Z M 14.9707 3.85742 C 8.93555 3.85742 4.08203 -1.00586 4.08203 -7.04102 C 4.08203 -13.0762 8.92578 -17.9395 14.9609 -17.9395 C 21.0059 -17.9395 25.8594 -13.0762 25.8691 -7.04102 C 25.8789 -1.00586 21.0156 3.85742 14.9707 3.85742 Z M 14.9512 -1.06445 C 15.5176 -1.06445 15.8691 -1.45508 15.8691 -2.06055 L 15.8691 -6.13281 L 20.1074 -6.13281 C 20.6934 -6.13281 21.1133 -6.46484 21.1133 -7.02148 C 21.1133 -7.59766 20.7227 -7.93945 20.1074 -7.93945 L 15.8691 -7.93945 L 15.8691 -12.1875 C 15.8691 -12.8027 15.5176 -13.1934 14.9512 -13.1934 C 14.3848 -13.1934 14.0625 -12.7832 14.0625 -12.1875 L 14.0625 -7.93945 L 9.83398 -7.93945 C 9.21875 -7.93945 8.80859 -7.59766 8.80859 -7.02148 C 8.80859 -6.46484 9.23828 -6.13281 9.83398 -6.13281 L 14.0625 -6.13281 L 14.0625 -2.06055 C 14.0625 -1.47461 14.3848 -1.06445 14.9512 -1.06445 Z"/>
  </g>
  <text style="stroke:none;fill:black;font-family:-apple-system,&quot;SF Pro Display&quot;,&quot;SF Pro Text&quot;,Helvetica,sans-serif;font-weight:bold;" transform="matrix(1 0 0 1 263 1953)">Design Variations</text>
  <text style="stroke:none;fill:black;font-family:-apple-system,&quot;SF Pro Display&quot;,&quot;SF Pro Text&quot;,Helvetica,sans-serif;" transform="matrix(1 0 0 1 263 1971)">Symbols are supported in up to nine weights and three scales.</text>
  <text style="stroke:none;fill:black;font-family:-apple-system,&quot;SF Pro Display&quot;,&quot;SF Pro Text&quot;,Helvetica,sans-serif;" transform="matrix(1 0 0 1 263 1989)">For optimal layout with text and other symbols, vertically align</text>
  <text style="stroke:none;fill:black;font-family:-apple-system,&quot;SF Pro Display&quot;,&quot;SF Pro Text&quot;,Helvetica,sans-serif;" transform="matrix(1 0 0 1 263 2007)">symbols with the adjacent text.</text>
  <rect height="14" id="" style="fill:#00AEEF;stroke:none;opacity:0.4;" width="3" x="776" y="1919"/>
  <g id="" transform="matrix(1 0 0 1 779 1933)">
   <path d="M 10.5273 0 L 12.373 0 L 7.17773 -14.0918 L 5.43945 -14.0918 L 0.244141 0 L 2.08984 0 L 3.50586 -4.0332 L 9.11133 -4.0332 Z M 6.2793 -11.9531 L 6.33789 -11.9531 L 8.59375 -5.52734 L 4.02344 -5.52734 Z"/>
  </g>
  <rect height="14" id="" style="fill:#00AEEF;stroke:none;opacity:0.4;" width="3" x="791.617" y="1919"/>
  <text style="stroke:none;fill:black;font-family:-apple-system,&quot;SF Pro Display&quot;,&quot;SF Pro Text&quot;,Helvetica,sans-serif;font-weight:bold;" transform="matrix(1 0 0 1 776 1953)">Margins</text>
  <text style="stroke:none;fill:black;font-family:-apple-system,&quot;SF Pro Display&quot;,&quot;SF Pro Text&quot;,Helvetica,sans-serif;" transform="matrix(1 0 0 1 776 1971)">Leading and trailing margins on the left and right side of each symbol</text>
  <text style="stroke:none;fill:black;font-family:-apple-system,&quot;SF Pro Display&quot;,&quot;SF Pro Text&quot;,Helvetica,sans-serif;" transform="matrix(1 0 0 1 776 1989)">can be adjusted by modifying the width of the blue rectangles.</text>
  <text style="stroke:none;fill:black;font-family:-apple-system,&quot;SF Pro Display&quot;,&quot;SF Pro Text&quot;,Helvetica,sans-serif;" transform="matrix(1 0 0 1 776 2007)">Modifications are automatically applied proportionally to all</text>
  <text style="stroke:none;fill:black;font-family:-apple-system,&quot;SF Pro Display&quot;,&quot;SF Pro Text&quot;,Helvetica,sans-serif;" transform="matrix(1 0 0 1 776 2025)">scales and weights.</text>
  <g id="" transform="matrix(1 0 0 1 1289 1933)">
   <path d="M 2.83203 3.11523 L 4.375 4.6582 C 5.22461 5.48828 6.19141 5.41992 7.06055 4.46289 L 17.2754 -6.66016 C 17.7051 -6.36719 18.0957 -6.37695 18.5645 -6.47461 L 19.6094 -6.68945 L 20.3027 -5.99609 L 20.2539 -5.47852 C 20.1855 -4.95117 20.3516 -4.53125 20.8496 -4.0332 L 21.6602 -3.22266 C 22.168 -2.71484 22.8223 -2.68555 23.3008 -3.16406 L 26.5527 -6.41602 C 27.0312 -6.89453 27.0117 -7.54883 26.5039 -8.05664 L 25.6836 -8.87695 C 25.1855 -9.375 24.7754 -9.55078 24.2383 -9.47266 L 23.7109 -9.41406 L 23.0566 -10.0781 L 23.3398 -11.2207 C 23.4863 -11.7871 23.3398 -12.2559 22.7148 -12.8613 L 20.3027 -15.2539 C 16.7578 -18.7793 12.2266 -18.6719 9.11133 -15.5371 C 8.69141 -15.1074 8.64258 -14.5215 8.91602 -14.0918 C 9.15039 -13.7207 9.62891 -13.4961 10.2734 -13.6621 C 11.7871 -14.043 13.3008 -13.9258 14.7852 -12.9199 L 14.1602 -11.3379 C 13.9258 -10.752 13.9453 -10.2734 14.1797 -9.83398 L 3.01758 0.439453 C 2.08008 1.30859 1.97266 2.25586 2.83203 3.11523 Z M 10.6738 -15.1465 C 13.3398 -17.1387 16.6504 -16.8262 19.0527 -14.4141 L 21.6797 -11.8066 C 21.9141 -11.5723 21.9434 -11.3867 21.8848 -11.0938 L 21.5039 -9.53125 L 23.0762 -7.95898 L 24.043 -8.04688 C 24.3262 -8.07617 24.4141 -8.05664 24.6387 -7.83203 L 25.2637 -7.20703 L 22.5098 -4.46289 L 21.8848 -5.07812 C 21.6602 -5.30273 21.6406 -5.40039 21.6699 -5.68359 L 21.7578 -6.64062 L 20.1953 -8.20312 L 18.5742 -7.89062 C 18.291 -7.83203 18.1445 -7.83203 17.9102 -8.07617 L 15.7324 -10.2539 C 15.5078 -10.4883 15.4785 -10.625 15.6055 -10.9473 L 16.5527 -13.2227 C 14.9512 -14.7559 12.8418 -15.6055 10.8008 -14.9512 C 10.7129 -14.9219 10.6445 -14.9414 10.6152 -14.9805 C 10.5859 -15.0293 10.5859 -15.0781 10.6738 -15.1465 Z M 4.10156 2.41211 C 3.61328 1.91406 3.78906 1.61133 4.12109 1.30859 L 15.0781 -8.80859 L 16.3086 -7.57812 L 6.15234 3.34961 C 5.84961 3.68164 5.46875 3.7793 5.06836 3.37891 Z"/>
  </g>
  <text style="stroke:none;fill:black;font-family:-apple-system,&quot;SF Pro Display&quot;,&quot;SF Pro Text&quot;,Helvetica,sans-serif;font-weight:bold;" transform="matrix(1 0 0 1 1289 1953)">Exporting</text>
  <text style="stroke:none;fill:black;font-family:-apple-system,&quot;SF Pro Display&quot;,&quot;SF Pro Text&quot;,Helvetica,sans-serif;" transform="matrix(1 0 0 1 1289 1971)">Symbols should be outlined when exporting to ensure the</text>
  <text style="stroke:none;fill:black;font-family:-apple-system,&quot;SF Pro Display&quot;,&quot;SF Pro Text&quot;,Helvetica,sans-serif;" transform="matrix(1 0 0 1 1289 1989)">design is preserved when submitting to Xcode.</text>
  <text id="template-version" style="stroke:none;fill:black;font-family:-apple-system,&quot;SF Pro Display&quot;,&quot;SF Pro Text&quot;,Helvetica,sans-serif;text-anchor:end;" transform="matrix(1 0 0 1 3036 1933)">Template v.1.0</text>
  <text style="stroke:none;fill:black;font-family:-apple-system,&quot;SF Pro Display&quot;,&quot;SF Pro Text&quot;,Helvetica,sans-serif;text-anchor:end;" transform="matrix(1 0 0 1 3036 1951)">Generated from plus.bubble.fill</text>
  <text style="stroke:none;fill:black;font-family:-apple-system,&quot;SF Pro Display&quot;,&quot;SF Pro Text&quot;,Helvetica,sans-serif;text-anchor:end;" transform="matrix(1 0 0 1 3036 1969)">Typeset at 100 points</text>
  <text style="stroke:none;fill:black;font-family:-apple-system,&quot;SF Pro Display&quot;,&quot;SF Pro Text&quot;,Helvetica,sans-serif;" transform="matrix(1 0 0 1 263 726)">Small</text>
  <text style="stroke:none;fill:black;font-family:-apple-system,&quot;SF Pro Display&quot;,&quot;SF Pro Text&quot;,Helvetica,sans-serif;" transform="matrix(1 0 0 1 263 1156)">Medium</text>
  <text style="stroke:none;fill:black;font-family:-apple-system,&quot;SF Pro Display&quot;,&quot;SF Pro Text&quot;,Helvetica,sans-serif;" transform="matrix(1 0 0 1 263 1586)">Large</text>
 </g>
 <g id="Guides">
  <g id="H-reference" style="fill:#27AAE1;stroke:none;" transform="matrix(1 0 0 1 339 696)">
   <path d="M 54.9316 0 L 57.666 0 L 30.5664 -70.459 L 28.0762 -70.459 L 0.976562 0 L 3.66211 0 L 12.9395 -24.4629 L 45.7031 -24.4629 Z M 29.1992 -67.0898 L 29.4434 -67.0898 L 44.8242 -26.709 L 13.8184 -26.709 Z"/>
  </g>
  <line id="Baseline-S" style="fill:none;stroke:#27AAE1;opacity:1;stroke-width:0.577;" x1="263" x2="3036" y1="696" y2="696"/>
  <line id="Capline-S" style="fill:none;stroke:#27AAE1;opacity:1;stroke-width:0.577;" x1="263" x2="3036" y1="625.541" y2="625.541"/>
  <g id="H-reference" style="fill:#27AAE1;stroke:none;" transform="matrix(1 0 0 1 339 1126)">
   <path d="M 54.9316 0 L 57.666 0 L 30.5664 -70.459 L 28.0762 -70.459 L 0.976562 0 L 3.66211 0 L 12.9395 -24.4629 L 45.7031 -24.4629 Z M 29.1992 -67.0898 L 29.4434 -67.0898 L 44.8242 -26.709 L 13.8184 -26.709 Z"/>
  </g>
  <line id="Baseline-M" style="fill:none;stroke:#27AAE1;opacity:1;stroke-width:0.577;" x1="263" x2="3036" y1="1126" y2="1126"/>
  <line id="Capline-M" style="fill:none;stroke:#27AAE1;opacity:1;stroke-width:0.577;" x1="263" x2="3036" y1="1055.54" y2="1055.54"/>
  <g id="H-reference" style="fill:#27AAE1;stroke:none;" transform="matrix(1 0 0 1 339 1556)">
   <path d="M 54.9316 0 L 57.666 0 L 30.5664 -70.459 L 28.0762 -70.459 L 0.976562 0 L 3.66211 0 L 12.9395 -24.4629 L 45.7031 -24.4629 Z M 29.1992 -67.0898 L 29.4434 -67.0898 L 44.8242 -26.709 L 13.8184 -26.709 Z"/>
  </g>
  <line id="Baseline-L" style="fill:none;stroke:#27AAE1;opacity:1;stroke-width:0.577;" x1="263" x2="3036" y1="1556" y2="1556"/>
  <line id="Capline-L" style="fill:none;stroke:#27AAE1;opacity:1;stroke-width:0.577;" x1="263" x2="3036" y1="1485.54" y2="1485.54"/>
  <rect height="119.336" id="left-margin" style="fill:#00AEEF;stroke:none;opacity:0.4;" width="12.4512" x="1383.58" y="1030.79"/>
  <rect height="119.336" id="right-margin" style="fill:#00AEEF;stroke:none;opacity:0.4;" width="12.4512" x="1503.65" y="1030.79"/>
 </g>
 <g id="Symbols">
  <g id="Black-L" transform="matrix(1 0 0 1 2846.24 1556)">
   <path d="M 55.1758 39.0625 C 58.3496 39.0625 60.9863 37.8418 64.8926 34.375 L 89.4043 12.8418 L 125.83 12.8418 C 145.703 12.8906 158.252 0.195312 158.252 -19.5801 L 158.252 -70.1172 C 158.252 -89.8926 145.703 -102.539 125.83 -102.539 L 48.4863 -102.539 C 28.6133 -102.539 16.0645 -89.8926 16.0645 -70.1172 L 16.0645 -19.5801 C 16.0645 0.195312 29.7852 12.8418 46.7285 12.8418 L 47.6562 12.8418 L 47.6562 30.8105 C 47.6562 35.9375 50.5371 39.0625 55.1758 39.0625 Z M 87.1582 -12.4512 C 82.3242 -12.4512 78.9551 -15.918 78.9551 -20.6055 L 78.9551 -33.8379 L 64.8438 -33.8379 C 60.0586 -33.8379 56.5918 -37.207 56.5918 -42.041 C 56.5918 -46.9238 60.0098 -50.293 64.8438 -50.293 L 78.9551 -50.293 L 78.9551 -63.9648 C 78.9551 -68.7012 82.3242 -72.1191 87.1582 -72.1191 C 91.9922 -72.1191 95.4102 -68.7012 95.4102 -63.9648 L 95.4102 -50.293 L 109.521 -50.293 C 114.355 -50.293 117.773 -46.9238 117.773 -42.041 C 117.773 -37.207 114.307 -33.8379 109.521 -33.8379 L 95.4102 -33.8379 L 95.4102 -20.6055 C 95.4102 -15.8691 91.9922 -12.4512 87.1582 -12.4512 Z"/>
  </g>
  <g id="Heavy-L" transform="matrix(1 0 0 1 2550.07 1556)">
   <path d="M 54.4434 37.6953 C 57.4219 37.6953 59.8145 36.5234 63.3789 33.3008 L 87.5 12.0117 L 125.879 12.0117 C 145.264 12.0605 157.178 -0.0488281 157.178 -19.2383 L 157.178 -69.6289 C 157.178 -88.8184 145.264 -100.879 125.879 -100.879 L 47.3145 -100.879 C 27.9785 -100.879 16.0645 -88.8672 16.0645 -69.6289 L 16.0645 -19.2383 C 16.0645 0 28.8574 12.0117 45.9961 12.0117 L 47.5586 12.0117 L 47.5586 30.0781 C 47.5586 34.7656 50.1465 37.6953 54.4434 37.6953 Z M 86.7676 -12.5977 C 82.373 -12.5977 79.3945 -15.7715 79.3945 -20.0684 L 79.3945 -34.7656 L 63.916 -34.7656 C 59.5215 -34.7656 56.3477 -37.7441 56.3477 -42.0898 C 56.3477 -46.5332 59.4727 -49.5605 63.916 -49.5605 L 79.3945 -49.5605 L 79.3945 -64.7949 C 79.3945 -69.1406 82.373 -72.2656 86.7676 -72.2656 C 91.1621 -72.2656 94.1895 -69.1895 94.1895 -64.7949 L 94.1895 -49.5605 L 109.717 -49.5605 C 114.16 -49.5605 117.236 -46.5332 117.236 -42.0898 C 117.236 -37.7441 114.111 -34.7656 109.717 -34.7656 L 94.1895 -34.7656 L 94.1895 -20.0684 C 94.1895 -15.7227 91.1621 -12.5977 86.7676 -12.5977 Z"/>
  </g>
  <g id="Bold-L" transform="matrix(1 0 0 1 2253.97 1556)">
   <path d="M 53.6621 36.1816 C 56.3477 36.1816 58.4473 35.0098 61.6699 32.0801 L 85.3027 11.0352 L 125.977 11.084 C 144.727 11.1328 155.957 -0.292969 155.957 -18.8965 L 155.957 -69.043 C 155.957 -87.6465 144.727 -99.0234 125.977 -99.0234 L 46.0449 -99.0234 C 27.2461 -99.0234 16.0645 -87.6953 16.0645 -69.043 L 16.0645 -18.8965 C 16.0645 -0.244141 27.832 11.084 45.166 11.0352 L 47.4121 11.0352 L 47.4121 29.1992 C 47.4121 33.4961 49.7559 36.1816 53.6621 36.1816 Z M 86.3281 -12.793 C 82.4219 -12.793 79.8828 -15.625 79.8828 -19.4824 L 79.8828 -35.791 L 62.8906 -35.791 C 58.9355 -35.791 56.0547 -38.3301 56.0547 -42.1875 C 56.0547 -46.1426 58.8379 -48.7305 62.8906 -48.7305 L 79.8828 -48.7305 L 79.8828 -65.7227 C 79.8828 -69.6289 82.4219 -72.4609 86.3281 -72.4609 C 90.2344 -72.4609 92.8711 -69.6777 92.8711 -65.7227 L 92.8711 -48.7305 L 109.961 -48.7305 C 113.965 -48.7305 116.699 -46.1426 116.699 -42.1875 C 116.699 -38.3301 113.867 -35.791 109.961 -35.791 L 92.8711 -35.791 L 92.8711 -19.4824 C 92.8711 -15.5273 90.2344 -12.793 86.3281 -12.793 Z"/>
  </g>
  <g id="Semibold-L" transform="matrix(1 0 0 1 1957.7 1556)">
   <path d="M 53.0762 35.1074 C 55.6152 35.1074 57.5195 33.9355 60.4492 31.25 L 83.8379 10.4004 L 126.025 10.4492 C 144.385 10.498 155.078 -0.439453 155.078 -18.6035 L 155.078 -68.6523 C 155.078 -86.8164 144.385 -97.7539 126.025 -97.7539 L 45.166 -97.7539 C 26.7578 -97.7539 16.0645 -86.8652 16.0645 -68.6523 L 16.0645 -18.6035 C 16.0645 -0.390625 27.1484 10.4492 44.5801 10.4004 L 47.3633 10.4004 L 47.3633 28.6133 C 47.3633 32.5684 49.5117 35.1074 53.0762 35.1074 Z M 86.0352 -12.8906 C 82.4707 -12.8906 80.2734 -15.4785 80.2734 -19.0918 L 80.2734 -36.4746 L 62.1582 -36.4746 C 58.4961 -36.4746 55.9082 -38.7207 55.9082 -42.2363 C 55.9082 -45.8984 58.3984 -48.1445 62.1582 -48.1445 L 80.2734 -48.1445 L 80.2734 -66.3574 C 80.2734 -69.9707 82.4707 -72.5586 86.0352 -72.5586 C 89.6484 -72.5586 91.9434 -70.0195 91.9434 -66.3574 L 91.9434 -48.1445 L 110.107 -48.1445 C 113.818 -48.1445 116.309 -45.8984 116.309 -42.2363 C 116.309 -38.7207 113.721 -36.4746 110.107 -36.4746 L 91.9434 -36.4746 L 91.9434 -19.0918 C 91.9434 -15.4297 89.6484 -12.8906 86.0352 -12.8906 Z"/>
  </g>
  <g id="Medium-L" transform="matrix(1 0 0 1 1661.3 1556)">
   <path d="M 52.6855 34.3262 C 55.0293 34.3262 56.7871 33.1543 59.5703 30.6152 L 82.7148 9.91211 L 126.025 9.96094 C 144.092 10.0098 154.443 -0.585938 154.443 -18.457 L 154.443 -68.3594 C 154.443 -86.2305 144.092 -96.7773 126.025 -96.7773 L 44.4824 -96.7773 C 26.3672 -96.7773 16.0645 -86.2793 16.0645 -68.3594 L 16.0645 -18.457 C 16.0645 -0.537109 26.6113 9.96094 44.1406 9.91211 L 47.2656 9.91211 L 47.2656 28.1738 C 47.2656 31.8848 49.3164 34.3262 52.6855 34.3262 Z M 85.8398 -12.9883 C 82.4707 -12.9883 80.5176 -15.4297 80.5176 -18.7988 L 80.5176 -37.0117 L 61.6211 -37.0117 C 58.2031 -37.0117 55.7617 -39.0137 55.7617 -42.2852 C 55.7617 -45.6543 58.1055 -47.7051 61.6211 -47.7051 L 80.5176 -47.7051 L 80.5176 -66.8457 C 80.5176 -70.2148 82.4707 -72.6074 85.8398 -72.6074 C 89.1602 -72.6074 91.2598 -70.3125 91.2598 -66.8457 L 91.2598 -47.7051 L 110.205 -47.7051 C 113.721 -47.7051 116.016 -45.6543 116.016 -42.2852 C 116.016 -39.0137 113.623 -37.0117 110.205 -37.0117 L 91.2598 -37.0117 L 91.2598 -18.7988 C 91.2598 -15.332 89.1602 -12.9883 85.8398 -12.9883 Z"/>
  </g>
  <g id="Regular-L" transform="matrix(1 0 0 1 1365.01 1556)">
   <path d="M 52.1484 33.252 C 54.2969 33.252 55.9082 32.1289 58.3984 29.834 L 81.2012 9.27734 L 126.074 9.32617 C 143.75 9.375 153.613 -0.78125 153.613 -18.1641 L 153.613 -67.9688 C 153.613 -85.4004 143.75 -95.5078 126.074 -95.5078 L 43.6035 -95.5078 C 25.8789 -95.5078 16.0645 -85.4492 16.0645 -67.9688 L 16.0645 -18.1641 C 16.0645 -0.683594 25.8789 9.32617 43.6035 9.27734 L 47.2168 9.27734 L 47.2168 27.5879 C 47.2168 31.0059 49.0234 33.252 52.1484 33.252 Z M 85.5469 -13.1348 C 82.5195 -13.1348 80.8594 -15.332 80.8594 -18.3594 L 80.8594 -37.7441 L 60.8887 -37.7441 C 57.8125 -37.7441 55.5664 -39.4043 55.5664 -42.334 C 55.5664 -45.4102 57.666 -47.1191 60.8887 -47.1191 L 80.8594 -47.1191 L 80.8594 -67.4805 C 80.8594 -70.5566 82.5195 -72.7539 85.5469 -72.7539 C 88.5254 -72.7539 90.332 -70.6543 90.332 -67.4805 L 90.332 -47.1191 L 110.352 -47.1191 C 113.574 -47.1191 115.625 -45.4102 115.625 -42.334 C 115.625 -39.4043 113.477 -37.7441 110.352 -37.7441 L 90.332 -37.7441 L 90.332 -18.3594 C 90.332 -15.2344 88.5254 -13.1348 85.5469 -13.1348 Z"/>
  </g>
  <g id="Light-L" transform="matrix(1 0 0 1 1069.2 1556)">
   <path d="M 50.293 31.7871 C 52.0508 31.7871 53.3691 30.8105 55.2734 29.1016 L 78.125 8.93555 L 126.074 8.98438 C 142.334 9.0332 151.807 -0.683594 151.807 -16.6992 L 151.807 -68.6035 C 151.807 -84.6191 142.334 -94.2871 126.074 -94.2871 L 41.7969 -94.2871 C 25.5371 -94.2871 16.0645 -84.7168 16.0645 -68.6035 L 16.0645 -16.6992 C 16.0645 -0.585938 25.5371 8.98438 41.7969 8.93555 L 46.2891 8.93555 L 46.2891 27.2461 C 46.2891 29.9805 47.8516 31.7871 50.293 31.7871 Z M 85.1074 -14.4043 C 82.8613 -14.4043 81.543 -16.0645 81.543 -18.3105 L 81.543 -39.1113 L 60.4004 -39.1113 C 58.1543 -39.1113 56.3965 -40.4785 56.3965 -42.627 C 56.3965 -44.9219 58.0078 -46.2891 60.4004 -46.2891 L 81.543 -46.2891 L 81.543 -67.6758 C 81.543 -69.9707 82.8613 -71.6309 85.1074 -71.6309 C 87.4023 -71.6309 88.7695 -70.0195 88.7695 -67.6758 L 88.7695 -46.2891 L 109.961 -46.2891 C 112.354 -46.2891 113.916 -44.9219 113.916 -42.627 C 113.916 -40.4785 112.207 -39.1113 109.961 -39.1113 L 88.7695 -39.1113 L 88.7695 -18.3105 C 88.7695 -16.0156 87.4023 -14.4043 85.1074 -14.4043 Z"/>
  </g>
  <g id="Thin-L" transform="matrix(1 0 0 1 773.683 1556)">
   <path d="M 47.8516 29.834 C 49.0234 29.834 50 29.1016 51.123 28.1738 L 74.0234 8.49609 L 126.074 8.54492 C 140.43 8.54492 149.414 -0.634766 149.414 -14.7949 L 149.414 -69.3848 C 149.414 -83.5449 140.43 -92.7246 126.074 -92.7246 L 39.3555 -92.7246 C 25.0488 -92.7246 16.0645 -83.6914 16.0645 -69.3848 L 16.0645 -14.7949 C 16.0645 -0.488281 25.0488 8.54492 39.3555 8.49609 L 45.0684 8.49609 L 45.0684 26.709 C 45.0684 28.6133 46.2402 29.834 47.8516 29.834 Z M 84.4727 -16.0645 C 83.252 -16.0645 82.4219 -17.0898 82.4219 -18.2617 L 82.4219 -40.918 L 59.7656 -40.918 C 58.5938 -40.918 57.5195 -41.8457 57.5195 -42.9688 C 57.5195 -44.2871 58.4961 -45.2148 59.7656 -45.2148 L 82.4219 -45.2148 L 82.4219 -67.9199 C 82.4219 -69.1895 83.252 -70.166 84.4727 -70.166 C 85.8887 -70.166 86.7188 -69.1895 86.7188 -67.9199 L 86.7188 -45.2148 L 109.424 -45.2148 C 110.693 -45.2148 111.621 -44.2871 111.621 -42.9688 C 111.621 -41.8457 110.596 -40.918 109.424 -40.918 L 86.7188 -40.918 L 86.7188 -18.2617 C 86.7188 -17.041 85.8887 -16.0645 84.4727 -16.0645 Z"/>
  </g>
  <g id="Ultralight-L" transform="matrix(1 0 0 1 477.607 1556)">
   <path d="M 46.582 28.8086 C 47.5098 28.8086 48.291 28.2227 48.9746 27.7344 L 71.9238 8.30078 L 126.074 8.30078 C 139.453 8.30078 148.145 -0.585938 148.145 -13.8184 L 148.145 -69.8242 C 148.145 -83.0078 139.453 -91.8945 126.074 -91.8945 L 38.1348 -91.8945 C 24.8047 -91.8945 16.0645 -83.2031 16.0645 -69.8242 L 16.0645 -13.8184 C 16.0645 -0.439453 24.8047 8.30078 38.1348 8.30078 L 44.4824 8.30078 L 44.4824 26.4648 C 44.4824 27.9297 45.4102 28.8086 46.582 28.8086 Z M 84.1797 -16.9434 C 83.4961 -16.9434 82.8613 -17.5781 82.8613 -18.2129 L 82.8613 -41.8457 L 59.4238 -41.8457 C 58.7891 -41.8457 58.0566 -42.5293 58.0566 -43.1641 C 58.0566 -43.9453 58.7402 -44.6289 59.4238 -44.6289 L 82.8613 -44.6289 L 82.8613 -68.0664 C 82.8613 -68.75 83.4961 -69.3848 84.1797 -69.3848 C 85.1074 -69.3848 85.6934 -68.75 85.6934 -68.0664 L 85.6934 -44.6289 L 109.131 -44.6289 C 109.814 -44.6289 110.498 -43.9453 110.498 -43.1641 C 110.498 -42.5293 109.766 -41.8457 109.131 -41.8457 L 85.6934 -41.8457 L 85.6934 -18.2129 C 85.6934 -17.5781 85.1074 -16.9434 84.1797 -16.9434 Z"/>
  </g>
  <g id="Black-M" transform="matrix(1 0 0 1 2865.58 1126)">
   <path d="M 42.7246 23.3887 C 45.3125 23.3887 47.5586 22.5586 50.6836 19.7754 L 70.2637 2.97852 L 97.4609 2.97852 C 112.793 2.97852 123.193 -7.42188 123.193 -22.7539 L 123.193 -63.2812 C 123.193 -78.6133 112.793 -89.0137 97.4609 -89.0137 L 38.1836 -89.0137 C 22.8516 -89.0137 12.4512 -78.6133 12.4512 -63.2812 L 12.4512 -22.7539 C 12.4512 -7.42188 24.1211 2.97852 36.2793 2.97852 L 36.6211 2.97852 L 36.6211 16.7969 C 36.6211 20.8984 38.9648 23.3887 42.7246 23.3887 Z M 67.8223 -18.0176 C 63.8672 -18.0176 60.9375 -20.8496 60.9375 -24.6094 L 60.9375 -33.6426 L 51.2207 -33.6426 C 47.4121 -33.6426 44.6289 -36.6211 44.6289 -40.5762 C 44.6289 -44.4824 47.4121 -47.4609 51.2207 -47.4609 L 60.9375 -47.4609 L 60.9375 -56.4941 C 60.9375 -60.2539 63.8672 -63.0371 67.8223 -63.0371 C 71.7773 -63.0371 74.707 -60.2539 74.707 -56.4941 L 74.707 -47.4609 L 84.375 -47.4609 C 88.1836 -47.4609 91.0156 -44.4824 91.0156 -40.5762 C 91.0156 -36.6211 88.1836 -33.6426 84.375 -33.6426 L 74.707 -33.6426 L 74.707 -24.6094 C 74.707 -20.8496 71.7773 -18.0176 67.8223 -18.0176 Z"/>
  </g>
  <g id="Heavy-M" transform="matrix(1 0 0 1 2569.23 1126)">
   <path d="M 42.4316 22.3145 C 44.873 22.3145 46.875 21.3867 49.8047 18.7988 L 68.9453 2.14844 L 97.5098 2.14844 C 112.646 2.14844 122.461 -7.71484 122.461 -22.8027 L 122.461 -62.5488 C 122.461 -77.6367 112.646 -87.5 97.5098 -87.5 L 37.4023 -87.5 C 22.2656 -87.5 12.4512 -77.6367 12.4512 -62.5488 L 12.4512 -22.8027 C 12.4512 -7.71484 23.2422 2.14844 35.9375 2.14844 L 36.7188 2.14844 L 36.7188 16.0645 C 36.7188 19.9219 38.916 22.3145 42.4316 22.3145 Z M 67.5293 -17.8711 C 63.8672 -17.8711 61.2305 -20.5078 61.2305 -24.0234 L 61.2305 -34.3262 L 50.3418 -34.3262 C 46.7773 -34.3262 44.1406 -36.9141 44.1406 -40.5762 C 44.1406 -44.2383 46.7285 -46.875 50.3418 -46.875 L 61.2305 -46.875 L 61.2305 -57.3242 C 61.2305 -60.8887 63.8672 -63.4766 67.5293 -63.4766 C 71.1914 -63.4766 73.8281 -60.8887 73.8281 -57.3242 L 73.8281 -46.875 L 84.7168 -46.875 C 88.3301 -46.875 90.918 -44.2383 90.918 -40.5762 C 90.918 -36.9141 88.3301 -34.3262 84.7168 -34.3262 L 73.8281 -34.3262 L 73.8281 -24.0234 C 73.8281 -20.459 71.1914 -17.8711 67.5293 -17.8711 Z"/>
  </g>
  <g id="Bold-M" transform="matrix(1 0 0 1 2272.94 1126)">
   <path d="M 42.0898 21.0449 C 44.3359 21.0449 46.1426 20.1172 48.877 17.6758 L 67.4805 1.2207 L 97.5586 1.2207 C 112.5 1.26953 121.631 -8.00781 121.631 -22.8027 L 121.631 -61.7676 C 121.631 -76.5625 112.5 -85.791 97.5586 -85.791 L 36.4746 -85.791 C 21.582 -85.791 12.4512 -76.6113 12.4512 -61.7676 L 12.4512 -22.8027 C 12.4512 -7.95898 22.2168 1.2207 35.5469 1.2207 L 36.8652 1.2207 L 36.8652 15.2344 C 36.8652 18.7988 38.8184 21.0449 42.0898 21.0449 Z M 67.1875 -17.7246 C 63.8184 -17.7246 61.6211 -20.1172 61.6211 -23.3887 L 61.6211 -35.0098 L 49.3652 -35.0098 C 45.9961 -35.0098 43.6035 -37.2559 43.6035 -40.5762 C 43.6035 -43.9453 45.9473 -46.1914 49.3652 -46.1914 L 61.6211 -46.1914 L 61.6211 -58.3008 C 61.6211 -61.5723 63.8184 -64.0137 67.1875 -64.0137 C 70.5078 -64.0137 72.8027 -61.6211 72.8027 -58.3008 L 72.8027 -46.1914 L 85.0586 -46.1914 C 88.4766 -46.1914 90.8203 -43.9453 90.8203 -40.5762 C 90.8203 -37.2559 88.4277 -35.0098 85.0586 -35.0098 L 72.8027 -35.0098 L 72.8027 -23.3887 C 72.8027 -20.0684 70.5078 -17.7246 67.1875 -17.7246 Z"/>
  </g>
  <g id="Semibold-M" transform="matrix(1 0 0 1 1976.52 1126)">
   <path d="M 41.8457 20.2148 C 43.9941 20.2148 45.6543 19.2383 48.1934 16.9434 L 66.4551 0.585938 L 97.6074 0.585938 C 112.402 0.634766 121.045 -8.20312 121.045 -22.8027 L 121.045 -61.2305 C 121.045 -75.8301 112.402 -84.668 97.6074 -84.668 L 35.8887 -84.668 C 21.0938 -84.668 12.4512 -75.8789 12.4512 -61.2305 L 12.4512 -22.8027 C 12.4512 -8.1543 21.4844 0.585938 35.2539 0.585938 L 36.9141 0.585938 L 36.9141 14.6973 C 36.9141 18.0664 38.7695 20.2148 41.8457 20.2148 Z M 66.9434 -17.5781 C 63.8184 -17.5781 61.8652 -19.8242 61.8652 -22.9492 L 61.8652 -35.498 L 48.6816 -35.498 C 45.5078 -35.498 43.2617 -37.5 43.2617 -40.5762 C 43.2617 -43.75 45.4102 -45.752 48.6816 -45.752 L 61.8652 -45.752 L 61.8652 -58.9355 C 61.8652 -62.0605 63.8184 -64.3066 66.9434 -64.3066 C 70.0684 -64.3066 72.1191 -62.1582 72.1191 -58.9355 L 72.1191 -45.752 L 85.3027 -45.752 C 88.5742 -45.752 90.7227 -43.75 90.7227 -40.5762 C 90.7227 -37.5 88.5254 -35.498 85.3027 -35.498 L 72.1191 -35.498 L 72.1191 -22.9492 C 72.1191 -19.7754 70.0684 -17.5781 66.9434 -17.5781 Z"/>
  </g>
  <g id="Medium-M" transform="matrix(1 0 0 1 1680.03 1126)">
   <path d="M 41.6992 19.5312 C 43.75 19.5312 45.2637 18.5547 47.7051 16.3574 L 65.7227 0.0976562 L 97.6562 0.146484 C 112.354 0.146484 120.605 -8.34961 120.605 -22.8516 L 120.605 -60.791 C 120.605 -75.293 112.354 -83.7891 97.6562 -83.7891 L 35.4004 -83.7891 C 20.752 -83.7891 12.4512 -75.293 12.4512 -60.791 L 12.4512 -22.8516 C 12.4512 -8.30078 20.9961 0.146484 35.0586 0.0976562 L 37.0117 0.0976562 L 37.0117 14.2578 C 37.0117 17.4805 38.7207 19.5312 41.6992 19.5312 Z M 66.748 -17.4805 C 63.8184 -17.4805 62.0605 -19.6289 62.0605 -22.6074 L 62.0605 -35.8887 L 48.1445 -35.8887 C 45.1172 -35.8887 42.9688 -37.6465 42.9688 -40.5762 C 42.9688 -43.6035 45.0195 -45.4102 48.1445 -45.4102 L 62.0605 -45.4102 L 62.0605 -59.4238 C 62.0605 -62.4512 63.8184 -64.5996 66.748 -64.5996 C 69.7266 -64.5996 71.582 -62.5488 71.582 -59.4238 L 71.582 -45.4102 L 85.498 -45.4102 C 88.6719 -45.4102 90.6738 -43.6035 90.6738 -40.5762 C 90.6738 -37.6465 88.5742 -35.8887 85.498 -35.8887 L 71.582 -35.8887 L 71.582 -22.6074 C 71.582 -19.5312 69.7266 -17.4805 66.748 -17.4805 Z"/>
  </g>
  <g id="Regular-M" transform="matrix(1 0 0 1 1383.58 1126)">
   <path d="M 41.4551 18.7012 C 43.3594 18.7012 44.7754 17.7246 47.0703 15.5762 L 64.6973 -0.537109 L 97.7051 -0.488281 C 112.256 -0.439453 120.068 -8.54492 120.068 -22.8516 L 120.068 -60.2539 C 120.068 -74.5605 112.256 -82.6172 97.7051 -82.6172 L 34.8145 -82.6172 C 20.2637 -82.6172 12.4512 -74.6094 12.4512 -60.2539 L 12.4512 -22.8516 C 12.4512 -8.49609 20.2637 -0.488281 34.8145 -0.537109 L 37.1094 -0.537109 L 37.1094 13.6719 C 37.1094 16.6992 38.6719 18.7012 41.4551 18.7012 Z M 66.5527 -17.3828 C 63.7695 -17.3828 62.3047 -19.3848 62.3047 -22.2168 L 62.3047 -36.377 L 47.5098 -36.377 C 44.6289 -36.377 42.5781 -37.8906 42.5781 -40.5762 C 42.5781 -43.4082 44.4824 -44.9219 47.5098 -44.9219 L 62.3047 -44.9219 L 62.3047 -60.1074 C 62.3047 -62.9395 63.7695 -64.9414 66.5527 -64.9414 C 69.2383 -64.9414 70.8984 -63.0371 70.8984 -60.1074 L 70.8984 -44.9219 L 85.7422 -44.9219 C 88.7695 -44.9219 90.5762 -43.4082 90.5762 -40.5762 C 90.5762 -37.8906 88.623 -36.377 85.7422 -36.377 L 70.8984 -36.377 L 70.8984 -22.2168 C 70.8984 -19.2871 69.2383 -17.3828 66.5527 -17.3828 Z"/>
  </g>
  <g id="Light-M" transform="matrix(1 0 0 1 1087.68 1126)">
   <path d="M 39.7949 17.3828 C 41.3574 17.3828 42.4805 16.5527 44.2383 14.9414 L 61.9141 -0.830078 L 97.7051 -0.830078 C 110.938 -0.78125 118.457 -8.49609 118.457 -21.5332 L 118.457 -60.791 C 118.457 -73.877 110.938 -81.543 97.7051 -81.543 L 33.2031 -81.543 C 19.9707 -81.543 12.4512 -73.9258 12.4512 -60.791 L 12.4512 -21.5332 C 12.4512 -8.44727 19.9707 -0.830078 33.2031 -0.830078 L 36.2793 -0.830078 L 36.2793 13.3301 C 36.2793 15.7715 37.5977 17.3828 39.7949 17.3828 Z M 66.1621 -18.5059 C 64.0625 -18.5059 62.8906 -20.0195 62.8906 -22.168 L 62.8906 -37.5977 L 47.0215 -37.5977 C 44.9219 -37.5977 43.3594 -38.8184 43.3594 -40.8203 C 43.3594 -42.9688 44.8242 -44.1895 47.0215 -44.1895 L 62.8906 -44.1895 L 62.8906 -60.2539 C 62.8906 -62.4023 64.0625 -63.916 66.1621 -63.916 C 68.2129 -63.916 69.4824 -62.4512 69.4824 -60.2539 L 69.4824 -44.1895 L 85.4004 -44.1895 C 87.6465 -44.1895 89.0625 -42.9688 89.0625 -40.8203 C 89.0625 -38.8184 87.5488 -37.5977 85.4004 -37.5977 L 69.4824 -37.5977 L 69.4824 -22.168 C 69.4824 -19.9707 68.2129 -18.5059 66.1621 -18.5059 Z"/>
  </g>
  <g id="Thin-M" transform="matrix(1 0 0 1 792.042 1126)">
   <path d="M 37.5977 15.625 C 38.6719 15.625 39.502 14.9902 40.5273 14.1113 L 58.252 -1.2207 L 97.7051 -1.2207 C 109.229 -1.2207 116.309 -8.44727 116.309 -19.8242 L 116.309 -61.5234 C 116.309 -72.9004 109.229 -80.127 97.7051 -80.127 L 31.0547 -80.127 C 19.5312 -80.127 12.4512 -72.998 12.4512 -61.5234 L 12.4512 -19.8242 C 12.4512 -8.34961 19.5312 -1.2207 31.0547 -1.2207 L 35.2051 -1.2207 L 35.2051 12.8906 C 35.2051 14.5508 36.1816 15.625 37.5977 15.625 Z M 65.625 -20.0195 C 64.4531 -20.0195 63.6719 -20.9473 63.6719 -22.0703 L 63.6719 -39.2578 L 46.4355 -39.2578 C 45.3125 -39.2578 44.3359 -40.0391 44.3359 -41.1621 C 44.3359 -42.3828 45.2148 -43.2129 46.4355 -43.2129 L 63.6719 -43.2129 L 63.6719 -60.498 C 63.6719 -61.7188 64.4531 -62.5977 65.625 -62.5977 C 66.8945 -62.5977 67.6758 -61.7188 67.6758 -60.498 L 67.6758 -43.2129 L 84.9121 -43.2129 C 86.1328 -43.2129 87.0117 -42.3828 87.0117 -41.1621 C 87.0117 -40.0391 86.084 -39.2578 84.9121 -39.2578 L 67.6758 -39.2578 L 67.6758 -22.0703 C 67.6758 -20.8984 66.8945 -20.0195 65.625 -20.0195 Z"/>
  </g>
  <g id="Ultralight-M" transform="matrix(1 0 0 1 495.893 1126)">
   <path d="M 36.4746 14.6973 C 37.2559 14.6973 37.9395 14.209 38.5742 13.6719 L 56.3477 -1.41602 L 97.7051 -1.41602 C 108.35 -1.41602 115.186 -8.39844 115.186 -18.9453 L 115.186 -61.9141 C 115.186 -72.4121 108.35 -79.3945 97.7051 -79.3945 L 29.9316 -79.3945 C 19.2871 -79.3945 12.4512 -72.5586 12.4512 -61.9141 L 12.4512 -18.9453 C 12.4512 -8.25195 19.2871 -1.41602 29.9316 -1.41602 L 34.668 -1.41602 L 34.668 12.6465 C 34.668 13.916 35.4492 14.6973 36.4746 14.6973 Z M 65.332 -20.8008 C 64.6484 -20.8008 64.1113 -21.3867 64.1113 -22.0215 L 64.1113 -40.0879 L 46.1426 -40.0879 C 45.5078 -40.0879 44.8242 -40.6738 44.8242 -41.3086 C 44.8242 -42.0898 45.459 -42.6758 46.1426 -42.6758 L 64.1113 -42.6758 L 64.1113 -60.6445 C 64.1113 -61.3281 64.6484 -61.9629 65.332 -61.9629 C 66.1621 -61.9629 66.6992 -61.3281 66.6992 -60.6445 L 66.6992 -42.6758 L 84.668 -42.6758 C 85.3516 -42.6758 85.9863 -42.0898 85.9863 -41.3086 C 85.9863 -40.6738 85.3027 -40.0879 84.668 -40.0879 L 66.6992 -40.0879 L 66.6992 -22.0215 C 66.6992 -21.3867 66.1621 -20.8008 65.332 -20.8008 Z"/>
  </g>
  <g id="Black-S" transform="matrix(1 0 0 1 2880.28 696)">
   <path d="M 33.4961 10.6445 C 35.498 10.6445 37.2559 9.96094 39.6973 7.8125 L 54.9805 -5.37109 L 76.3672 -5.37109 C 88.3789 -5.37109 96.4844 -13.4766 96.4844 -25.4883 L 96.4844 -57.1289 C 96.4844 -69.1406 88.3789 -77.2461 76.3672 -77.2461 L 29.8828 -77.2461 C 17.8711 -77.2461 9.76562 -69.1406 9.76562 -57.1289 L 9.76562 -25.4883 C 9.76562 -13.4766 18.8477 -5.37109 28.418 -5.37109 L 28.7109 -5.37109 L 28.7109 5.46875 C 28.7109 8.69141 30.5664 10.6445 33.4961 10.6445 Z M 53.125 -21.7285 C 50.0488 -21.7285 47.7539 -23.9258 47.7539 -26.8555 L 47.7539 -34.0332 L 40.0879 -34.0332 C 37.1094 -34.0332 34.9121 -36.3281 34.9121 -39.4043 C 34.9121 -42.4805 37.1094 -44.7754 40.0879 -44.7754 L 47.7539 -44.7754 L 47.7539 -51.9531 C 47.7539 -54.8828 50.0488 -57.0801 53.125 -57.0801 C 56.2012 -57.0801 58.4961 -54.8828 58.4961 -51.9531 L 58.4961 -44.7754 L 66.1621 -44.7754 C 69.1406 -44.7754 71.3379 -42.4805 71.3379 -39.4043 C 71.3379 -36.3281 69.1406 -34.0332 66.1621 -34.0332 L 58.4961 -34.0332 L 58.4961 -26.8555 C 58.4961 -23.9258 56.2012 -21.7285 53.125 -21.7285 Z"/>
  </g>
  <g id="Heavy-S" transform="matrix(1 0 0 1 2583.76 696)">
   <path d="M 33.4473 9.96094 C 35.4004 9.96094 37.0117 9.22852 39.3555 7.12891 L 54.2969 -5.95703 L 76.416 -5.95703 C 88.4277 -5.95703 96.0938 -13.6719 96.0938 -25.6348 L 96.0938 -56.543 C 96.0938 -68.5059 88.4277 -76.2207 76.416 -76.2207 L 29.4434 -76.2207 C 17.4316 -76.2207 9.76562 -68.5059 9.76562 -56.543 L 9.76562 -25.6348 C 9.76562 -13.6719 18.2129 -5.95703 28.3203 -5.95703 L 28.9062 -5.95703 L 28.9062 4.93164 C 28.9062 8.05664 30.6152 9.96094 33.4473 9.96094 Z M 52.9297 -21.4844 C 50 -21.4844 47.9492 -23.584 47.9492 -26.416 L 47.9492 -34.375 L 39.4531 -34.375 C 36.5723 -34.375 34.4727 -36.4746 34.4727 -39.3555 C 34.4727 -42.334 36.5234 -44.3848 39.4531 -44.3848 L 47.9492 -44.3848 L 47.9492 -52.5879 C 47.9492 -55.4199 50 -57.5195 52.9297 -57.5195 C 55.8594 -57.5195 57.959 -55.4688 57.959 -52.5879 L 57.959 -44.3848 L 66.4551 -44.3848 C 69.3848 -44.3848 71.4355 -42.334 71.4355 -39.3555 C 71.4355 -36.4746 69.3359 -34.375 66.4551 -34.375 L 57.959 -34.375 L 57.959 -26.416 C 57.959 -23.584 55.8594 -21.4844 52.9297 -21.4844 Z"/>
  </g>
  <g id="Bold-S" transform="matrix(1 0 0 1 2287.27 696)">
   <path d="M 33.3984 9.13086 C 35.2539 9.13086 36.7188 8.39844 38.9648 6.34766 L 53.5156 -6.64062 L 76.4648 -6.64062 C 88.4766 -6.5918 95.6543 -13.916 95.6543 -25.8301 L 95.6543 -55.8594 C 95.6543 -67.7734 88.4766 -75.0488 76.4648 -75.0488 L 28.9551 -75.0488 C 16.9434 -75.0488 9.76562 -67.7734 9.76562 -55.8594 L 9.76562 -25.8301 C 9.76562 -13.916 17.4316 -6.64062 28.2227 -6.64062 L 29.1016 -6.64062 L 29.1016 4.3457 C 29.1016 7.32422 30.7129 9.13086 33.3984 9.13086 Z M 52.7344 -21.1914 C 49.9512 -21.1914 48.1445 -23.1934 48.1445 -25.9277 L 48.1445 -34.7656 L 38.7695 -34.7656 C 35.9375 -34.7656 33.9844 -36.5723 33.9844 -39.3555 C 33.9844 -42.1387 35.9375 -43.9941 38.7695 -43.9941 L 48.1445 -43.9941 L 48.1445 -53.2715 C 48.1445 -56.0547 49.9512 -58.0078 52.7344 -58.0078 C 55.4688 -58.0078 57.373 -56.1035 57.373 -53.2715 L 57.373 -43.9941 L 66.748 -43.9941 C 69.6289 -43.9941 71.5332 -42.1387 71.5332 -39.3555 C 71.5332 -36.5723 69.5801 -34.7656 66.748 -34.7656 L 57.373 -34.7656 L 57.373 -25.9277 C 57.373 -23.1445 55.4688 -21.1914 52.7344 -21.1914 Z"/>
  </g>
  <g id="Semibold-S" transform="matrix(1 0 0 1 1990.7 696)">
   <path d="M 33.3496 8.59375 C 35.1562 8.59375 36.5234 7.8125 38.7207 5.81055 L 52.9785 -7.08008 L 76.5137 -7.08008 C 88.5254 -7.03125 95.3613 -14.0625 95.3613 -25.9277 L 95.3613 -55.3711 C 95.3613 -67.2852 88.5254 -74.2676 76.5137 -74.2676 L 28.6621 -74.2676 C 16.6504 -74.2676 9.76562 -67.2852 9.76562 -55.3711 L 9.76562 -25.9277 C 9.76562 -14.0625 16.9434 -7.08008 28.1738 -7.08008 L 29.248 -7.08008 L 29.248 3.95508 C 29.248 6.78711 30.7617 8.59375 33.3496 8.59375 Z M 52.5879 -20.9961 C 49.9023 -20.9961 48.291 -22.9492 48.291 -25.6348 L 48.291 -35.0586 L 38.2812 -35.0586 C 35.5469 -35.0586 33.6426 -36.6699 33.6426 -39.3066 C 33.6426 -42.041 35.498 -43.7012 38.2812 -43.7012 L 48.291 -43.7012 L 48.291 -53.7598 C 48.291 -56.4453 49.9023 -58.3496 52.5879 -58.3496 C 55.2246 -58.3496 56.9336 -56.543 56.9336 -53.7598 L 56.9336 -43.7012 L 66.9922 -43.7012 C 69.7754 -43.7012 71.6309 -42.041 71.6309 -39.3066 C 71.6309 -36.6699 69.7266 -35.0586 66.9922 -35.0586 L 56.9336 -35.0586 L 56.9336 -25.6348 C 56.9336 -22.8516 55.2246 -20.9961 52.5879 -20.9961 Z"/>
  </g>
  <g id="Medium-S" transform="matrix(1 0 0 1 1694.09 696)">
   <path d="M 33.3496 8.20312 C 35.0586 8.20312 36.377 7.37305 38.4766 5.41992 L 52.5879 -7.4707 L 76.5137 -7.42188 C 88.5254 -7.37305 95.166 -14.209 95.166 -26.0254 L 95.166 -55.0293 C 95.166 -66.8945 88.5254 -73.6816 76.5137 -73.6816 L 28.418 -73.6816 C 16.4062 -73.6816 9.76562 -66.8945 9.76562 -55.0293 L 9.76562 -26.0254 C 9.76562 -14.209 16.5527 -7.42188 28.125 -7.4707 L 29.3457 -7.4707 L 29.3457 3.66211 C 29.3457 6.39648 30.8105 8.20312 33.3496 8.20312 Z M 52.4902 -20.8496 C 49.9023 -20.8496 48.3887 -22.7539 48.3887 -25.3906 L 48.3887 -35.2539 L 37.8906 -35.2539 C 35.2051 -35.2539 33.3496 -36.7676 33.3496 -39.3066 C 33.3496 -41.9434 35.1562 -43.457 37.8906 -43.457 L 48.3887 -43.457 L 48.3887 -54.1504 C 48.3887 -56.7871 49.9023 -58.6426 52.4902 -58.6426 C 55.0293 -58.6426 56.6406 -56.8359 56.6406 -54.1504 L 56.6406 -43.457 L 67.1387 -43.457 C 69.9219 -43.457 71.6797 -41.9434 71.6797 -39.3066 C 71.6797 -36.7676 69.8242 -35.2539 67.1387 -35.2539 L 56.6406 -35.2539 L 56.6406 -25.3906 C 56.6406 -22.6562 55.0293 -20.8496 52.4902 -20.8496 Z"/>
  </g>
  <g id="Regular-S" transform="matrix(1 0 0 1 1397.53 696)">
   <path d="M 33.3008 7.66602 C 35.0098 7.66602 36.1816 6.78711 38.2324 4.88281 L 52.0508 -7.91016 L 76.5625 -7.86133 C 88.5742 -7.8125 94.873 -14.3555 94.873 -26.1719 L 94.873 -54.5898 C 94.873 -66.4062 88.5742 -72.9004 76.5625 -72.9004 L 28.0762 -72.9004 C 16.0645 -72.9004 9.76562 -66.4062 9.76562 -54.5898 L 9.76562 -26.1719 C 9.76562 -14.3555 16.0645 -7.86133 28.0762 -7.91016 L 29.4434 -7.91016 L 29.4434 3.27148 C 29.4434 5.9082 30.8594 7.66602 33.3008 7.66602 Z M 52.3438 -20.7031 C 49.8535 -20.7031 48.5352 -22.4609 48.5352 -25.0488 L 48.5352 -35.5469 L 37.4512 -35.5469 C 34.8145 -35.5469 33.0078 -36.8652 33.0078 -39.3066 C 33.0078 -41.8457 34.7168 -43.2129 37.4512 -43.2129 L 48.5352 -43.2129 L 48.5352 -54.6387 C 48.5352 -57.1777 49.8535 -58.9844 52.3438 -58.9844 C 54.7852 -58.9844 56.25 -57.2754 56.25 -54.6387 L 56.25 -43.2129 L 67.3828 -43.2129 C 70.0684 -43.2129 71.7285 -41.8457 71.7285 -39.3066 C 71.7285 -36.8652 69.9707 -35.5469 67.3828 -35.5469 L 56.25 -35.5469 L 56.25 -25.0488 C 56.25 -22.3633 54.7852 -20.7031 52.3438 -20.7031 Z"/>
  </g>
  <g id="Light-S" transform="matrix(1 0 0 1 1101.55 696)">
   <path d="M 31.8359 6.49414 C 33.2031 6.49414 34.1797 5.76172 35.7422 4.3457 L 49.6094 -8.1543 L 76.5625 -8.1543 C 87.4023 -8.10547 93.4082 -14.3066 93.4082 -25 L 93.4082 -55.0781 C 93.4082 -65.7715 87.4023 -71.9238 76.5625 -71.9238 L 26.6113 -71.9238 C 15.7715 -71.9238 9.76562 -65.8203 9.76562 -55.0781 L 9.76562 -25 C 9.76562 -14.2578 15.7715 -8.1543 26.6113 -8.1543 L 28.7598 -8.1543 L 28.7598 2.97852 C 28.7598 5.07812 29.8828 6.49414 31.8359 6.49414 Z M 52.002 -21.6797 C 50.0977 -21.6797 49.0723 -23.0469 49.0723 -25 L 49.0723 -36.6211 L 37.0117 -36.6211 C 35.0586 -36.6211 33.6914 -37.6953 33.6914 -39.502 C 33.6914 -41.4551 35.0098 -42.5293 37.0117 -42.5293 L 49.0723 -42.5293 L 49.0723 -54.7852 C 49.0723 -56.7383 50.0977 -58.1055 52.002 -58.1055 C 53.8574 -58.1055 54.9805 -56.7871 54.9805 -54.7852 L 54.9805 -42.5293 L 67.041 -42.5293 C 69.0918 -42.5293 70.3613 -41.4551 70.3613 -39.502 C 70.3613 -37.6953 68.9941 -36.6211 67.041 -36.6211 L 54.9805 -36.6211 L 54.9805 -25 C 54.9805 -22.998 53.8574 -21.6797 52.002 -21.6797 Z"/>
  </g>
  <g id="Thin-S" transform="matrix(1 0 0 1 805.763 696)">
   <path d="M 29.8828 4.93164 C 30.8105 4.93164 31.4941 4.44336 32.4707 3.61328 L 46.3379 -8.49609 L 76.5625 -8.49609 C 85.9375 -8.49609 91.5527 -14.2578 91.5527 -23.4863 L 91.5527 -55.7129 C 91.5527 -64.9414 85.9375 -70.6543 76.5625 -70.6543 L 24.7559 -70.6543 C 15.3809 -70.6543 9.76562 -64.9902 9.76562 -55.7129 L 9.76562 -23.4863 C 9.76562 -14.1602 15.3809 -8.49609 24.7559 -8.49609 L 27.7832 -8.49609 L 27.7832 2.53906 C 27.7832 4.00391 28.6133 4.93164 29.8828 4.93164 Z M 51.5137 -23.0469 C 50.4395 -23.0469 49.7559 -23.877 49.7559 -24.9512 L 49.7559 -38.0371 L 36.5234 -38.0371 C 35.4004 -38.0371 34.5703 -38.7695 34.5703 -39.7949 C 34.5703 -40.9668 35.3516 -41.6504 36.5234 -41.6504 L 49.7559 -41.6504 L 49.7559 -54.9805 C 49.7559 -56.1035 50.4395 -56.9336 51.5137 -56.9336 C 52.6855 -56.9336 53.3691 -56.1523 53.3691 -54.9805 L 53.3691 -41.6504 L 66.6504 -41.6504 C 67.7734 -41.6504 68.5547 -40.9668 68.5547 -39.7949 C 68.5547 -38.7695 67.7246 -38.0371 66.6504 -38.0371 L 53.3691 -38.0371 L 53.3691 -24.9512 C 53.3691 -23.8281 52.6855 -23.0469 51.5137 -23.0469 Z"/>
  </g>
  <g id="Ultralight-S" transform="matrix(1 0 0 1 509.54 696)">
   <path d="M 28.9062 4.15039 C 29.5898 4.15039 30.127 3.71094 30.7617 3.22266 L 44.6777 -8.69141 L 76.5625 -8.69141 C 85.1562 -8.69141 90.5762 -14.209 90.5762 -22.7051 L 90.5762 -56.0059 C 90.5762 -64.502 85.1562 -70.0195 76.5625 -70.0195 L 23.7793 -70.0195 C 15.1855 -70.0195 9.76562 -64.5996 9.76562 -56.0059 L 9.76562 -22.7051 C 9.76562 -14.1113 15.1855 -8.69141 23.7793 -8.69141 L 27.2949 -8.69141 L 27.2949 2.34375 C 27.2949 3.4668 27.9785 4.15039 28.9062 4.15039 Z M 51.2695 -23.7305 C 50.5859 -23.7305 50.0977 -24.2676 50.0977 -24.9023 L 50.0977 -38.8184 L 36.2305 -38.8184 C 35.5957 -38.8184 35.0098 -39.3066 35.0098 -39.9414 C 35.0098 -40.6738 35.5469 -41.2109 36.2305 -41.2109 L 50.0977 -41.2109 L 50.0977 -55.0781 C 50.0977 -55.7617 50.5859 -56.3477 51.2695 -56.3477 C 52.0508 -56.3477 52.5391 -55.8105 52.5391 -55.0781 L 52.5391 -41.2109 L 66.4062 -41.2109 C 67.0898 -41.2109 67.627 -40.6738 67.627 -39.9414 C 67.627 -39.3066 67.041 -38.8184 66.4062 -38.8184 L 52.5391 -38.8184 L 52.5391 -24.9023 C 52.5391 -24.2676 52.0508 -23.7305 51.2695 -23.7305 Z"/>
  </g>
 </g>
</svg>
